<?xml version="1.0" standalone="no"?>
 <!DOCTYPE svg PUBLIC "-//W3C//DTD SVG 1.1//EN" 
 "http://www.w3.org/Graphics/SVG/1.1/DTD/svg11.dtd"> 
<svg xmlns="http://www.w3.org/2000/svg" version="1.1" 
    width="2.24028cm" height="1.94564cm" viewBox="0 0 8820 7660 ">
<title>SVG Picture created as amplif_mic_educiaa-B.Cu.svg date 2017/05/27 15:36:51 </title>
  <desc>Picture generated by PCBNEW </desc>
<g style="fill:#000000; fill-opacity:1;stroke:#000000; stroke-opacity:1;
stroke-linecap:round; stroke-linejoin:round; "
 transform="translate(0 0) scale(1 1)">
</g>
<g style="fill:#000000; fill-opacity:0.0; 
stroke:#000000; stroke-width:-0.000393701; stroke-opacity:1; 
stroke-linecap:round; stroke-linejoin:round;">
</g>
<g style="fill:#000000; fill-opacity:0.0; 
stroke:#000000; stroke-width:59.0551; stroke-opacity:1; 
stroke-linecap:round; stroke-linejoin:round;">
<path d="M7379 862
L29 862
" />
<path d="M7379 6812
L7379 912
" />
<path d="M29 6812
L7379 6812
" />
<path d="M29 912
L29 6812
" />
</g>
<g style="fill:#000000; fill-opacity:0.0; 
stroke:#000000; stroke-width:0; stroke-opacity:1; 
stroke-linecap:round; stroke-linejoin:round;">
</g>
<g style="fill:#000000; fill-opacity:1.0; 
stroke:#000000; stroke-width:0; stroke-opacity:1; 
stroke-linecap:round; stroke-linejoin:round;">
<polyline style="fill-rule:evenodd;"
points="4232,4584
4232,5214
3602,5214
3602,4584
4232,4584
" /> 
</g>
<g style="fill:#000000; fill-opacity:1.0; 
stroke:#000000; stroke-width:629.921; stroke-opacity:1; 
stroke-linecap:round; stroke-linejoin:round;">
</g>
<g style="fill:#000000; fill-opacity:0.0; 
stroke:#000000; stroke-width:629.921; stroke-opacity:1; 
stroke-linecap:round; stroke-linejoin:round;">
<path d="M917 1899
L917 1899
" />
<path d="M3917 3899
L3917 3899
" />
<path d="M917 2899
L917 2899
" />
<path d="M3917 2899
L3917 2899
" />
<path d="M917 3899
L917 3899
" />
<path d="M3917 1899
L3917 1899
" />
<path d="M917 4899
L917 4899
" />
</g>
<g style="fill:#000000; fill-opacity:0.0; 
stroke:#000000; stroke-width:0; stroke-opacity:1; 
stroke-linecap:round; stroke-linejoin:round;">
</g>
<g style="fill:#000000; fill-opacity:1.0; 
stroke:#000000; stroke-width:0; stroke-opacity:1; 
stroke-linecap:round; stroke-linejoin:round;">
<polyline style="fill-rule:evenodd;"
points="2533,3215
2021,3215
2021,2625
2533,2625
2533,3215
" /> 
<polyline style="fill-rule:evenodd;"
points="2533,2152
2021,2152
2021,1562
2533,1562
2533,2152
" /> 
<polyline style="fill-rule:evenodd;"
points="1873,5318
1381,5318
1381,4728
1873,4728
1873,5318
" /> 
<polyline style="fill-rule:evenodd;"
points="1873,4334
1381,4334
1381,3743
1873,3743
1873,4334
" /> 
<polyline style="fill-rule:evenodd;"
points="4381,2301
4873,2301
4873,2892
4381,2892
4381,2301
" /> 
<polyline style="fill-rule:evenodd;"
points="4381,3286
4873,3286
4873,3876
4381,3876
4381,3286
" /> 
<polyline style="fill-rule:evenodd;"
points="6494,1647
6494,977
7164,977
7164,1647
6494,1647
" /> 
</g>
<g style="fill:#000000; fill-opacity:1.0; 
stroke:#000000; stroke-width:669.291; stroke-opacity:1; 
stroke-linecap:round; stroke-linejoin:round;">
</g>
<g style="fill:#000000; fill-opacity:0.0; 
stroke:#000000; stroke-width:669.291; stroke-opacity:1; 
stroke-linecap:round; stroke-linejoin:round;">
<path d="M6829 2312
L6829 2312
" />
<path d="M6829 3312
L6829 3312
" />
<path d="M6829 4312
L6829 4312
" />
<path d="M6829 5312
L6829 5312
" />
<path d="M6829 6312
L6829 6312
" />
</g>
<g style="fill:#000000; fill-opacity:0.0; 
stroke:#000000; stroke-width:0; stroke-opacity:1; 
stroke-linecap:round; stroke-linejoin:round;">
</g>
<g style="fill:#000000; fill-opacity:1.0; 
stroke:#000000; stroke-width:0; stroke-opacity:1; 
stroke-linecap:round; stroke-linejoin:round;">
<polyline style="fill-rule:evenodd;"
points="4885,5739
4373,5739
4373,5148
4885,5148
4885,5739
" /> 
<polyline style="fill-rule:evenodd;"
points="4885,4676
4373,4676
4373,4085
4885,4085
4885,4676
" /> 
<polyline style="fill-rule:evenodd;"
points="2533,5347
2021,5347
2021,4756
2533,4756
2533,5347
" /> 
<polyline style="fill-rule:evenodd;"
points="2533,4284
2021,4284
2021,3693
2533,3693
2533,4284
" /> 
<polyline style="fill-rule:evenodd;"
points="3333,3765
2821,3765
2821,3175
3333,3175
3333,3765
" /> 
<polyline style="fill-rule:evenodd;"
points="3333,2702
2821,2702
2821,2112
3333,2112
3333,2702
" /> 
<polyline style="fill-rule:evenodd;"
points="3333,5515
2821,5515
2821,4925
3333,4925
3333,5515
" /> 
<polyline style="fill-rule:evenodd;"
points="3333,4452
2821,4452
2821,3862
3333,3862
3333,4452
" /> 
<polyline style="fill-rule:evenodd;"
points="5042,3623
5042,2954
5712,2954
5712,3623
5042,3623
" /> 
</g>
<g style="fill:#000000; fill-opacity:1.0; 
stroke:#000000; stroke-width:669.291; stroke-opacity:1; 
stroke-linecap:round; stroke-linejoin:round;">
</g>
<g style="fill:#000000; fill-opacity:0.0; 
stroke:#000000; stroke-width:669.291; stroke-opacity:1; 
stroke-linecap:round; stroke-linejoin:round;">
<path d="M5377 4289
L5377 4289
" />
</g>
<g style="fill:#000000; fill-opacity:0.0; 
stroke:#000000; stroke-width:180; stroke-opacity:1; 
stroke-linecap:round; stroke-linejoin:round;">
<path d="M4629 5443
L4152 5443
" />
<path d="M4152 5443
L3221 6375
" />
<path d="M6829 6312
L6766 6375
" />
<path d="M6766 6375
L3221 6375
" />
<path d="M3221 6375
L2785 5939
" />
<path d="M2785 5939
L2745 5939
" />
<path d="M2277 5939
L1577 5939
" />
<path d="M1627 5031
L1627 5506
" />
<path d="M1577 5939
L994 5939
" />
<path d="M1627 5506
L1577 5556
" />
<path d="M1577 5556
L1577 5939
" />
<path d="M2277 5052
L2277 5939
" />
<path d="M2340 4989
L2277 5052
" />
<path d="M2745 5939
L2277 5939
" />
<path d="M994 5939
L877 5822
" />
<path d="M949 4931
L917 4899
" />
</g>
<g style="fill:#000000; fill-opacity:0.0; 
stroke:#000000; stroke-width:198.425; stroke-opacity:1; 
stroke-linecap:round; stroke-linejoin:round;">
<path d="M877 4939
L877 5339
" />
<path d="M877 5339
L877 5822
" />
<path d="M917 4899
L877 4939
" />
</g>
<g style="fill:#000000; fill-opacity:0.0; 
stroke:#000000; stroke-width:180; stroke-opacity:1; 
stroke-linecap:round; stroke-linejoin:round;">
<path d="M1144 2394
L679 2394
" />
<path d="M679 2394
L422 2136
" />
<path d="M422 2136
L422 1661
" />
<path d="M1841 1857
L2277 1857
" />
<path d="M422 1661
L679 1404
" />
<path d="M679 1404
L1388 1404
" />
<path d="M1388 1404
L1841 1857
" />
<path d="M4879 1976
L5377 2474
" />
<path d="M4879 1976
L5543 1312
" />
<path d="M4802 1899
L4879 1976
" />
<path d="M5543 1312
L6829 1312
" />
<path d="M3917 1899
L4802 1899
" />
<path d="M5377 2474
L5377 3289
" />
<path d="M1627 4047
L1627 2876
" />
<path d="M1627 2876
L1144 2394
" />
<path d="M3917 1899
L2318 1899
" />
<path d="M2318 1899
L2277 1857
" />
<path d="M2308 1889
L2277 1857
" />
</g>
<g style="fill:#000000; fill-opacity:0.0; 
stroke:#000000; stroke-width:198.425; stroke-opacity:1; 
stroke-linecap:round; stroke-linejoin:round;">
<path d="M5377 2989
L5377 3089
" />
</g>
<g style="fill:#000000; fill-opacity:0.0; 
stroke:#000000; stroke-width:180; stroke-opacity:1; 
stroke-linecap:round; stroke-linejoin:round;">
<path d="M4627 2597
L4438 2407
" />
<path d="M4438 2407
L4158 2407
" />
<path d="M4158 2407
L4154 2404
" />
<path d="M3513 2407
L3077 2407
" />
<path d="M4154 2404
L3679 2404
" />
<path d="M3679 2404
L3676 2407
" />
<path d="M3676 2407
L3513 2407
" />
<path d="M4629 4380
L4685 4380
" />
<path d="M4685 4380
L5027 4039
" />
<path d="M4627 3639
L5027 4039
" />
<path d="M5027 4039
L5177 4189
" />
<path d="M5377 4289
L5277 4289
" />
<path d="M5277 4289
L5027 4039
" />
<path d="M4627 3581
L4627 3639
" />
<path d="M3917 4899
L6242 4899
" />
<path d="M6242 4899
L6829 4312
" />
<path d="M3077 5220
L3008 5220
" />
<path d="M3917 4899
L3398 4899
" />
<path d="M3398 4899
L3077 5220
" />
<path d="M3938 4920
L3917 4899
" />
<path d="M927 1889
L1289 1889
" />
<path d="M1289 1889
L2277 2877
" />
<path d="M2277 2877
L2277 2920
" />
<path d="M927 1889
L917 1899
" />
<path d="M3917 2899
L3877 2939
" />
<path d="M3877 2939
L2295 2939
" />
<path d="M2295 2939
L2277 2920
" />
<path d="M2277 2920
L2277 3989
" />
<path d="M4007 2989
L3917 2899
" />
</g>
<g style="fill:#000000; fill-opacity:0.0; 
stroke:#000000; stroke-width:198.425; stroke-opacity:1; 
stroke-linecap:round; stroke-linejoin:round;">
<path d="M3975 2957
L3917 2899
" />
</g>
<g style="fill:#000000; fill-opacity:0.0; 
stroke:#000000; stroke-width:180; stroke-opacity:1; 
stroke-linecap:round; stroke-linejoin:round;">
<path d="M3077 4157
L3077 3470
" />
<path d="M3917 3899
L3505 3899
" />
<path d="M3505 3899
L3077 3470
" />
<path d="M3958 3857
L3917 3899
" />
<path d="M917 3899
L917 2899
" />
<path d="M988 3970
L917 3899
" />
<path d="M925 2907
L917 2899
" />
</g>
<g style="fill:#FFFFFF; fill-opacity:0.0; 
stroke:#FFFFFF; stroke-width:180; stroke-opacity:1; 
stroke-linecap:round; stroke-linejoin:round;">
</g>
<g style="fill:#FFFFFF; fill-opacity:1.0; 
stroke:#FFFFFF; stroke-width:0; stroke-opacity:1; 
stroke-linecap:round; stroke-linejoin:round;">
<circle cx="3917.4" cy="4899.16" r="157.48" /> 
</g>
<g style="fill:#FFFFFF; fill-opacity:1.0; 
stroke:#FFFFFF; stroke-width:39.3701; stroke-opacity:1; 
stroke-linecap:round; stroke-linejoin:round;">
</g>
<g style="fill:#FFFFFF; fill-opacity:1.0; 
stroke:#FFFFFF; stroke-width:0; stroke-opacity:1; 
stroke-linecap:round; stroke-linejoin:round;">
<circle cx="917.399" cy="1899.16" r="157.48" /> 
</g>
<g style="fill:#FFFFFF; fill-opacity:1.0; 
stroke:#FFFFFF; stroke-width:39.3701; stroke-opacity:1; 
stroke-linecap:round; stroke-linejoin:round;">
</g>
<g style="fill:#FFFFFF; fill-opacity:1.0; 
stroke:#FFFFFF; stroke-width:0; stroke-opacity:1; 
stroke-linecap:round; stroke-linejoin:round;">
<circle cx="3917.4" cy="3899.16" r="157.48" /> 
</g>
<g style="fill:#FFFFFF; fill-opacity:1.0; 
stroke:#FFFFFF; stroke-width:39.3701; stroke-opacity:1; 
stroke-linecap:round; stroke-linejoin:round;">
</g>
<g style="fill:#FFFFFF; fill-opacity:1.0; 
stroke:#FFFFFF; stroke-width:0; stroke-opacity:1; 
stroke-linecap:round; stroke-linejoin:round;">
<circle cx="917.399" cy="2899.16" r="157.48" /> 
</g>
<g style="fill:#FFFFFF; fill-opacity:1.0; 
stroke:#FFFFFF; stroke-width:39.3701; stroke-opacity:1; 
stroke-linecap:round; stroke-linejoin:round;">
</g>
<g style="fill:#FFFFFF; fill-opacity:1.0; 
stroke:#FFFFFF; stroke-width:0; stroke-opacity:1; 
stroke-linecap:round; stroke-linejoin:round;">
<circle cx="3917.4" cy="2899.16" r="157.48" /> 
</g>
<g style="fill:#FFFFFF; fill-opacity:1.0; 
stroke:#FFFFFF; stroke-width:39.3701; stroke-opacity:1; 
stroke-linecap:round; stroke-linejoin:round;">
</g>
<g style="fill:#FFFFFF; fill-opacity:1.0; 
stroke:#FFFFFF; stroke-width:0; stroke-opacity:1; 
stroke-linecap:round; stroke-linejoin:round;">
<circle cx="917.399" cy="3899.16" r="157.48" /> 
</g>
<g style="fill:#FFFFFF; fill-opacity:1.0; 
stroke:#FFFFFF; stroke-width:39.3701; stroke-opacity:1; 
stroke-linecap:round; stroke-linejoin:round;">
</g>
<g style="fill:#FFFFFF; fill-opacity:1.0; 
stroke:#FFFFFF; stroke-width:0; stroke-opacity:1; 
stroke-linecap:round; stroke-linejoin:round;">
<circle cx="3917.4" cy="1899.16" r="157.48" /> 
</g>
<g style="fill:#FFFFFF; fill-opacity:1.0; 
stroke:#FFFFFF; stroke-width:39.3701; stroke-opacity:1; 
stroke-linecap:round; stroke-linejoin:round;">
</g>
<g style="fill:#FFFFFF; fill-opacity:1.0; 
stroke:#FFFFFF; stroke-width:0; stroke-opacity:1; 
stroke-linecap:round; stroke-linejoin:round;">
<circle cx="917.399" cy="4899.16" r="157.48" /> 
</g>
<g style="fill:#FFFFFF; fill-opacity:1.0; 
stroke:#FFFFFF; stroke-width:39.3701; stroke-opacity:1; 
stroke-linecap:round; stroke-linejoin:round;">
</g>
<g style="fill:#FFFFFF; fill-opacity:1.0; 
stroke:#FFFFFF; stroke-width:0; stroke-opacity:1; 
stroke-linecap:round; stroke-linejoin:round;">
<circle cx="6829.53" cy="1312.44" r="196.85" /> 
</g>
<g style="fill:#FFFFFF; fill-opacity:1.0; 
stroke:#FFFFFF; stroke-width:39.3701; stroke-opacity:1; 
stroke-linecap:round; stroke-linejoin:round;">
</g>
<g style="fill:#FFFFFF; fill-opacity:1.0; 
stroke:#FFFFFF; stroke-width:0; stroke-opacity:1; 
stroke-linecap:round; stroke-linejoin:round;">
<circle cx="6829.53" cy="2312.44" r="196.85" /> 
</g>
<g style="fill:#FFFFFF; fill-opacity:1.0; 
stroke:#FFFFFF; stroke-width:39.3701; stroke-opacity:1; 
stroke-linecap:round; stroke-linejoin:round;">
</g>
<g style="fill:#FFFFFF; fill-opacity:1.0; 
stroke:#FFFFFF; stroke-width:0; stroke-opacity:1; 
stroke-linecap:round; stroke-linejoin:round;">
<circle cx="6829.53" cy="3312.44" r="196.85" /> 
</g>
<g style="fill:#FFFFFF; fill-opacity:1.0; 
stroke:#FFFFFF; stroke-width:39.3701; stroke-opacity:1; 
stroke-linecap:round; stroke-linejoin:round;">
</g>
<g style="fill:#FFFFFF; fill-opacity:1.0; 
stroke:#FFFFFF; stroke-width:0; stroke-opacity:1; 
stroke-linecap:round; stroke-linejoin:round;">
<circle cx="6829.53" cy="4312.44" r="196.85" /> 
</g>
<g style="fill:#FFFFFF; fill-opacity:1.0; 
stroke:#FFFFFF; stroke-width:39.3701; stroke-opacity:1; 
stroke-linecap:round; stroke-linejoin:round;">
</g>
<g style="fill:#FFFFFF; fill-opacity:1.0; 
stroke:#FFFFFF; stroke-width:0; stroke-opacity:1; 
stroke-linecap:round; stroke-linejoin:round;">
<circle cx="6829.53" cy="5312.44" r="196.85" /> 
</g>
<g style="fill:#FFFFFF; fill-opacity:1.0; 
stroke:#FFFFFF; stroke-width:39.3701; stroke-opacity:1; 
stroke-linecap:round; stroke-linejoin:round;">
</g>
<g style="fill:#FFFFFF; fill-opacity:1.0; 
stroke:#FFFFFF; stroke-width:0; stroke-opacity:1; 
stroke-linecap:round; stroke-linejoin:round;">
<circle cx="6829.53" cy="6312.44" r="196.85" /> 
</g>
<g style="fill:#FFFFFF; fill-opacity:1.0; 
stroke:#FFFFFF; stroke-width:39.3701; stroke-opacity:1; 
stroke-linecap:round; stroke-linejoin:round;">
</g>
<g style="fill:#FFFFFF; fill-opacity:1.0; 
stroke:#FFFFFF; stroke-width:0; stroke-opacity:1; 
stroke-linecap:round; stroke-linejoin:round;">
<circle cx="5377.4" cy="3289.16" r="196.85" /> 
</g>
<g style="fill:#FFFFFF; fill-opacity:1.0; 
stroke:#FFFFFF; stroke-width:39.3701; stroke-opacity:1; 
stroke-linecap:round; stroke-linejoin:round;">
</g>
<g style="fill:#FFFFFF; fill-opacity:1.0; 
stroke:#FFFFFF; stroke-width:0; stroke-opacity:1; 
stroke-linecap:round; stroke-linejoin:round;">
<circle cx="5377.4" cy="4289.16" r="196.85" /> 
</g>
<g style="fill:#FFFFFF; fill-opacity:1.0; 
stroke:#FFFFFF; stroke-width:39.3701; stroke-opacity:1; 
stroke-linecap:round; stroke-linejoin:round;">
</g>
<g style="fill:#000000; fill-opacity:1.0; 
stroke:#000000; stroke-width:39.3701; stroke-opacity:1; 
stroke-linecap:round; stroke-linejoin:round;">
</g> 
</svg>
